<svg xmlns="http://www.w3.org/2000/svg" width="733" height="723" viewBox="0 0 733 723"><defs><linearGradient id="6jq9a" x1="423.69" x2="300.01" y1="702.37" y2="56.74" gradientUnits="userSpaceOnUse"><stop offset="0" stop-color="#fff" stop-opacity="0"/><stop offset=".99" stop-color="#fff"/></linearGradient><linearGradient id="6jq9b" x1="324.83" x2="398.85" y1="706.16" y2="52.97" gradientUnits="userSpaceOnUse"><stop offset="0" stop-color="#fff" stop-opacity="0"/><stop offset=".99" stop-color="#fff"/></linearGradient><linearGradient id="6jq9c" x1="234.69" x2="226.35" y1="504.95" y2="651.7" gradientUnits="userSpaceOnUse"><stop offset="0" stop-color="#f73b6c"/><stop offset="1" stop-color="#842774"/></linearGradient><linearGradient id="6jq9d" x1="235.09" x2="226.92" y1="506.38" y2="650.26" gradientUnits="userSpaceOnUse"><stop offset="0" stop-color="#fff"/><stop offset="1" stop-color="#6de4e3"/></linearGradient><linearGradient id="6jq9e" x1="410.79" x2="401.99" y1="630.27" y2="763.08" gradientUnits="userSpaceOnUse"><stop offset="0" stop-color="#f73b6c"/><stop offset="1" stop-color="#842774"/></linearGradient><linearGradient id="6jq9f" x1="411.22" x2="402.6" y1="631.54" y2="761.8" gradientUnits="userSpaceOnUse"><stop offset="0" stop-color="#fff"/><stop offset="1" stop-color="#6de4e3"/></linearGradient><linearGradient id="6jq9g" x1="340.5" x2="340.5" y1="637.54" y2="402.34" gradientUnits="userSpaceOnUse"><stop offset="0" stop-color="#16164f"/><stop offset="1" stop-color="#0c0723"/></linearGradient><linearGradient id="6jq9h" x1="349.26" x2="349.26" y1="232.91" y2="421.32" gradientUnits="userSpaceOnUse"><stop offset="0" stop-color="#f73b6c"/><stop offset="1" stop-color="#842774"/></linearGradient><linearGradient id="6jq9i" x1="352.9" x2="350.77" y1="206.3" y2="316.6" gradientUnits="userSpaceOnUse"><stop offset="0" stop-color="#2e2594"/><stop offset="1" stop-color="#f73b6c"/></linearGradient><linearGradient id="6jq9j" x1="345.75" x2="342.73" y1="236.71" y2="627.21" gradientUnits="userSpaceOnUse"><stop offset="0" stop-color="#2f2ea6"/><stop offset="1" stop-color="#2b187a"/></linearGradient><linearGradient id="6jq9k" x1="324.2" x2="324.2" y1="331.74" y2="397.13" gradientUnits="userSpaceOnUse"><stop offset="0" stop-color="#16164f"/><stop offset="1" stop-color="#0c0723"/></linearGradient><linearGradient id="6jq9l" x1="329.69" x2="328.18" y1="332.5" y2="358.94" gradientUnits="userSpaceOnUse"><stop offset="0" stop-color="#fff"/><stop offset="1" stop-color="#6de4e3"/></linearGradient><linearGradient id="6jq9m" x1="339.12" x2="361.65" y1="221.06" y2="221.06" gradientUnits="userSpaceOnUse"><stop offset="0" stop-color="#fa9791"/><stop offset="1" stop-color="#fcc0a2"/></linearGradient><linearGradient id="6jq9n" x1="354.86" x2="354.86" y1="234.27" y2="84.16" gradientUnits="userSpaceOnUse"><stop offset="0" stop-color="#fa9791"/><stop offset="1" stop-color="#fcc0a2"/></linearGradient><linearGradient id="6jq9o" x1="354.84" x2="354.84" y1="235.04" y2="91.69" gradientUnits="userSpaceOnUse"><stop offset="0" stop-color="#2f2ea6"/><stop offset="1" stop-color="#2b187a"/></linearGradient><linearGradient id="6jq9p" x1="354.21" x2="324.58" y1="198.86" y2="206.25" gradientUnits="userSpaceOnUse"><stop offset="0" stop-color="#16164f"/><stop offset="1" stop-color="#0c0723"/></linearGradient><linearGradient id="6jq9q" x1="330.71" x2="373.98" y1="200.69" y2="206.1" gradientUnits="userSpaceOnUse"><stop offset="0" stop-color="#f73b6c"/><stop offset="1" stop-color="#842774"/></linearGradient><linearGradient id="6jq9r" x1="354.21" x2="354.21" y1="148.43" y2="186.68" gradientUnits="userSpaceOnUse"><stop offset="0" stop-color="#16164f"/><stop offset="1" stop-color="#0c0723"/></linearGradient><linearGradient id="6jq9s" x1="331.55" x2="331.55" y1="159.59" y2="178.07" gradientUnits="userSpaceOnUse"><stop offset="0" stop-color="#16164f"/><stop offset="1" stop-color="#0c0723"/></linearGradient><linearGradient id="6jq9t" x1="376.15" x2="376.15" y1="159.59" y2="178.07" gradientUnits="userSpaceOnUse"><stop offset="0" stop-color="#16164f"/><stop offset="1" stop-color="#0c0723"/></linearGradient><linearGradient id="6jq9u" x1="278.42" x2="278.42" y1="130.15" y2="201.38" gradientUnits="userSpaceOnUse"><stop offset="0" stop-color="#f73b6c"/><stop offset="1" stop-color="#842774"/></linearGradient><linearGradient id="6jq9v" x1="298.78" x2="298.23" y1="122.06" y2="299.36" gradientUnits="userSpaceOnUse"><stop offset="0" stop-color="#2e2594"/><stop offset="1" stop-color="#f73b6c"/></linearGradient><linearGradient id="6jq9w" x1="431.31" x2="431.31" y1="130.15" y2="201.38" gradientUnits="userSpaceOnUse"><stop offset="0" stop-color="#f73b6c"/><stop offset="1" stop-color="#842774"/></linearGradient><linearGradient id="6jq9x" x1="412" x2="411.45" y1="122.06" y2="299.36" gradientUnits="userSpaceOnUse"><stop offset="0" stop-color="#2e2594"/><stop offset="1" stop-color="#f73b6c"/></linearGradient><linearGradient id="6jq9y" x1="403.64" x2="403.64" y1="112.38" y2="166" gradientUnits="userSpaceOnUse"><stop offset="0" stop-color="#2f2ea6"/><stop offset="1" stop-color="#2b187a"/></linearGradient><linearGradient id="6jq9z" x1="406.2" x2="406.2" y1="116.91" y2="175.83" gradientUnits="userSpaceOnUse"><stop offset="0" stop-color="#2f2ea6"/><stop offset="1" stop-color="#2b187a"/></linearGradient><linearGradient id="6jq9A" x1="357.25" x2="357.25" y1="66.43" y2="161.78" gradientUnits="userSpaceOnUse"><stop offset="0" stop-color="#2f2ea6"/><stop offset="1" stop-color="#2b187a"/></linearGradient><linearGradient id="6jq9B" x1="343.6" x2="343.6" y1="40.94" y2="159.36" gradientUnits="userSpaceOnUse"><stop offset="0" stop-color="#2f2ea6"/><stop offset="1" stop-color="#2b187a"/></linearGradient><linearGradient id="6jq9C" x1="213.24" x2="286.26" y1="383.25" y2="262.45" gradientUnits="userSpaceOnUse"><stop offset="0" stop-color="#fa9791"/><stop offset="1" stop-color="#fcc0a2"/></linearGradient><linearGradient id="6jq9D" x1="435.78" x2="389.8" y1="424.31" y2="299.01" gradientUnits="userSpaceOnUse"><stop offset="0" stop-color="#fa9791"/><stop offset="1" stop-color="#fcc0a2"/></linearGradient><linearGradient id="6jq9E" x1="272.19" x2="268.66" y1="220.8" y2="392.89" gradientUnits="userSpaceOnUse"><stop offset="0" stop-color="#2e2594"/><stop offset="1" stop-color="#f73b6c"/></linearGradient><linearGradient id="6jq9F" x1="429.56" x2="426.51" y1="248.09" y2="434.77" gradientUnits="userSpaceOnUse"><stop offset="0" stop-color="#2e2594"/><stop offset="1" stop-color="#f73b6c"/></linearGradient><linearGradient id="6jq9G" x1="74.2" x2="74.2" y1="661.86" y2="475.62" gradientUnits="userSpaceOnUse"><stop offset="0" stop-color="#fff" stop-opacity="0"/><stop offset=".99" stop-color="#fff"/></linearGradient><linearGradient id="6jq9H" x1="543.68" x2="543.68" y1="138.23" y2="15.2" gradientUnits="userSpaceOnUse"><stop offset="0" stop-color="#fff" stop-opacity="0"/><stop offset=".99" stop-color="#fff"/></linearGradient></defs><g><g><g opacity=".3"><path fill="#b100a0" d="M364.295 566.75c128.635 0 232.915-104.28 232.915-232.915S492.93 100.92 364.295 100.92 131.38 205.2 131.38 333.835 235.66 566.75 364.295 566.75z"/></g><g opacity=".3"><path fill="#b100a0" d="M311.625 566.75c128.635 0 232.915-104.28 232.915-232.915S440.26 100.92 311.625 100.92 78.71 205.2 78.71 333.835 182.99 566.75 311.625 566.75z"/></g><g><path fill="#b100a0" d="M339.205 566.75c128.635 0 232.915-104.28 232.915-232.915S467.84 100.92 339.205 100.92 106.29 205.2 106.29 333.835 210.57 566.75 339.205 566.75z"/></g><g><g opacity=".4"><path fill="url(#6jq9a)" d="M384.237 64.25c-68.209 45.672-150.805 65.47-233.045 60.383-27.478-1.701-55.328 2.609-79.76 17.773-87.96 54.649-41.412 198.908 6.107 267.911 47.52 69.003-37.49 163.702-2.462 264.963 35.028 101.26 192.379-12.33 271.961-16.17 45.964-2.219 95.039 49.837 231.069 12.265 136.029-37.572 216.956-126.211 91.831-295.454-125.142-169.243-57.549-329.234-184.44-350.345-37.086-6.173-75.354 21.321-101.261 38.674z"/></g><g opacity=".4"><path fill="url(#6jq9b)" d="M477.036 85.188c-78.708 23.314-163.459 17.627-240.45-11.698-25.728-9.802-53.595-13.982-81.445-6.756-100.224 26.003-98.717 177.586-73.88 257.59C106.098 404.328-3.247 469.459.074 576.552c3.305 107.093 187.34 45.478 264.444 65.487 44.539 11.552 75.905 75.857 216.957 80.474 141.052 4.601 244.694-55.944 175.577-254.755-69.1-198.811 43.016-331.438-71.838-389.36-33.57-16.93-78.286-2.057-108.178 6.79z"/></g></g><g><g><g><g><path fill="url(#6jq9c)" d="M269.94 523.06s-11.633 54.098-58.165 52.283c-46.53-1.798 18.503-54.988 18.503-54.988s37.328-1.799 39.661 2.705z"/></g></g><g opacity=".2"><path fill="url(#6jq9d)" d="M268.74 522.06c-3.952 12.848-18.583 49.367-56.964 47.892-9.56-.373-14.16-2.916-15.473-6.707-1.701 6.69 1.88 11.6 15.473 12.118 46.53 1.799 58.164-52.282 58.164-52.282-.195-.39-.616-.73-1.2-1.021z"/></g></g><g><g><g><path fill="url(#6jq9e)" d="M448.748 646.687s-12.507 48.903-62.554 47.277c-50.047-1.627 19.895-49.723 19.895-49.723s40.164-1.627 42.66 2.446z"/></g></g><g opacity=".2"><path fill="url(#6jq9f)" d="M447.45 645.77c-4.244 11.621-19.992 44.65-61.258 43.3-10.272-.333-15.23-2.626-16.64-6.074-1.83 6.047 2.026 10.481 16.64 10.954 50.047 1.626 62.555-47.276 62.555-47.276-.21-.334-.664-.626-1.296-.904z"/></g></g><g><path fill="url(#6jq9g)" d="M230.368 519.96s-49.446-127.273-50.351-137.37c-.905-10.085 34.839-10.252 93.658 11.297 58.819 21.55 150.893 29.053 150.893 29.053S501 534.689 501 542.458C501 550.213 447.95 648 447.95 648h-45.86s40.398-93.324 41.287-101.86c.905-8.536-62.633-62.025-83.429-75.15-20.797-13.125-105.325-30.197-105.325-30.197l15.286 81.482c.017.014-15.27 13.209-39.54-2.315z"/></g><g><g><path fill="url(#6jq9h)" d="M273.61 397.493l18.778-169.988s76.634-14.387 119.001 27.964l13.529 175.772c-.017 0-62.798 14.533-151.308-33.748z"/></g><g><path fill="url(#6jq9i)" d="M336.143 220.6s-15.846 26.41 12.653 30.67c26.052 3.905 23.736-35.822 15.635-38.803-8.117-2.98-20.674-2.252-28.288 8.134z"/></g><g opacity=".3"><path fill="url(#6jq9j)" d="M390.95 245.928s-82.789-4.873-82.224 42.193c.565 47.05 30.206 58.642 30.206 58.642s-28.283-3.416-39.852-21.145c0 0 2.365 36.898 62.244 59.695 0 0-28.787 4.662-68.35-24.853 0 0 .077 41.529 59.97 56.505 59.894 14.993 70.182-10.232 70.182-10.232l3.861 37.497s-123.084 7.189-165.257-50.887l28.924-165.03c-.015 0 61.695-21.161 100.296 17.615z"/></g></g><g><g><path fill="url(#6jq9k)" d="M288.628 333.588l89.757 13.464s18.502-.486 18.502 16.639 2.268 37.523-14.273 32.727c-21.711-6.318-20.074-32.403-20.074-32.403l-67.772-10.272s-9.9 27.008-33.943 21.905c-24.043-5.104 4.23-43.453 14.566-43.858 10.336-.405 13.237 1.798 13.237 1.798z"/></g><g opacity=".2"><path fill="url(#6jq9l)" d="M305.247 333.64s-9.916 6.302 22.536 11.114c32.452 4.812 26.717-5.411 26.717-5.411z"/></g></g><g><path fill="url(#6jq9m)" d="M350.966 197.97H349.8c-5.904 0-10.691 4.866-10.691 10.868v24.43c0 6.002 4.787 10.868 10.69 10.868h1.166c5.903 0 10.69-4.866 10.69-10.868v-24.43c0-6.002-4.786-10.868-10.69-10.868z"/></g><g><g><path fill="url(#6jq9n)" d="M354.86 79.066s-.712-.033-1.96-.033c-30.232.195-54.146 25.696-52.785 55.912 1.037 22.86 3.03 57.581 5.8 64.321 4.213 10.223 30.59 25.89 48.946 25.89 18.356 0 44.749-15.667 48.945-25.89 2.771-6.74 4.763-41.46 5.8-64.32 1.361-30.2-22.536-55.718-52.785-55.913a26.894 26.894 0 0 0-1.96.033z"/></g><g opacity=".3"><path fill="url(#6jq9o)" d="M354.864 225.152s-37.15-5.848-39.192-35.514c-2.041-29.681 9.9-39.402 27.964-34.283 0 0-3.418-9.202-12.621-8.7 0 0 2.56-10.24 10.24-8.7 7.679 1.54 45.089 7.874 65.26-3.743 20.187-11.6-20.755-47.422-69.36-47.422-48.605 0-38.365 90.049-38.365 105.392 0 15.359 27.219 39.824 56.074 32.97z"/></g></g><g><g><path fill="url(#6jq9p)" d="M323.18 200.645s9.964-12.087 23.476-5.865c11.034 5.103 9.17 13.9 9.17 13.9z"/></g><g><path fill="url(#6jq9q)" d="M331.33 203.424s9.915-12.524 23.59-5.881c11.163 5.427 9.38 14.614 9.38 14.614z"/></g></g><g><g><path fill="url(#6jq9r)" d="M348.087 183.812c2.365.47 5.039.583 7.145-.21 1.037-.39 1.863-1.037 2.382-1.864.567-.794.631-1.928.712-2.997l.05.437a245.742 245.742 0 0 1-2.836-14.484c-.405-2.43-.762-4.86-1.037-7.323-.26-2.463-.486-4.925-.454-7.437.016-.453.373-.81.827-.793.437 0 .777.356.793.777v.016c.065 2.382.405 4.78.778 7.178.373 2.398.843 4.78 1.361 7.16a265.927 265.927 0 0 0 3.483 14.177l.017.065c.032.13.048.26.032.373-.227 1.474-.486 3.062-1.54 4.374-.971 1.313-2.43 2.171-3.871 2.56-1.442.405-2.868.438-4.245.324a18.125 18.125 0 0 1-4.034-.778.81.81 0 0 1-.535-1.004.821.821 0 0 1 .923-.567z"/></g></g><g><g><g><path fill="url(#6jq9s)" d="M331.547 173.565c2.622 0 4.747-3.576 4.747-7.988 0-4.41-2.125-7.987-4.747-7.987s-4.747 3.576-4.747 7.987c0 4.412 2.125 7.988 4.747 7.988z"/></g><g><path fill="url(#6jq9t)" d="M376.147 173.565c2.622 0 4.747-3.576 4.747-7.988 0-4.41-2.125-7.987-4.747-7.987s-4.747 3.576-4.747 7.987c0 4.412 2.125 7.988 4.747 7.988z"/></g></g><g><g/><g/></g></g><g><g><g><path fill="url(#6jq9u)" d="M293.296 189.644h-4.31c-14.046 0-25.436-11.39-25.436-25.437v-2.77c0-14.047 11.39-25.437 25.437-25.437h4.31z"/></g></g><g><path fill="url(#6jq9v)" d="M298.507 194.78h-.519a4.702 4.702 0 0 1-4.698-4.698v-55.864a4.702 4.702 0 0 1 4.698-4.698h.519a4.702 4.702 0 0 1 4.698 4.698v55.864a4.702 4.702 0 0 1-4.698 4.698z"/></g><g><g><path fill="url(#6jq9w)" d="M416.43 189.644h4.31c14.047 0 25.436-11.39 25.436-25.437v-2.77c0-14.047-11.39-25.437-25.436-25.437h-4.31z"/></g></g><g><path fill="url(#6jq9x)" d="M411.208 194.78h.519a4.702 4.702 0 0 0 4.698-4.698v-55.864a4.702 4.702 0 0 0-4.698-4.698h-.519a4.702 4.702 0 0 0-4.698 4.698v55.864a4.702 4.702 0 0 0 4.698 4.698z"/></g></g><g><g><path fill="url(#6jq9y)" d="M406.51 173.91s-15.65-38.026-19.28-66.12l32.808 18.648z"/></g><g opacity=".3"><path fill="url(#6jq9z)" d="M416.426 136s-25.485-1.863-9.916 37.896c15.57 39.775-25.42-45.154-25.42-45.154l28.207-16.882 22.002 4.601z"/></g></g><g><g><path fill="url(#6jq9A)" d="M273.61 92.574l29.13 79.21s12.622-19.426 21.873-49.318c0 0 61.275 26.749 95.428 3.985 34.153-22.763 18.94-71.87 6.14-86.711 0 0-16.817 30.492-76.925 24.384-51.003-5.201-75.646 28.45-75.646 28.45z"/></g><g opacity=".8"><path fill="url(#6jq9B)" d="M302.736 171.782s-14.192-48.152 17.53-68.112c30.281-19.053 111.031.518 105.911-63.948-5.12-64.467-170.88-21.224-165.257 40.05 5.638 61.259 41.816 92.01 41.816 92.01z"/></g></g><g><g><path fill="url(#6jq9C)" d="M274.043 253.65l-92.868 70.704c-4.828 3.678-3.175 11.309 2.738 12.654l61.745 14.16s7.517 20.884 29.746 21.483c22.229.6 23.444-23.735 15.019-21.483-8.409 2.252-33.051-18.178-15.019-19.377l13.221 1.798s-14.809-14.42-37.75-2.398l-29.163-7.145c-3.03-.745-3.824-4.666-1.313-6.529l61.777-45.818z"/></g></g><g><g><path fill="url(#6jq9D)" d="M427.186 282.07l51.441 104.776c2.673 5.444-2.22 11.536-8.101 10.094l-61.567-14.954s-16.055 15.327-36.21 5.913c-20.155-9.413-10.353-31.723-3.824-25.939 6.513 5.785 37.701-1.474 22.1-10.612l-12.638-4.293s19.701-6.286 34.85 14.727l29.276 6.643c3.03.697 5.509-2.479 4.1-5.25l-34.77-68.613z"/></g></g><g><path fill="url(#6jq9E)" d="M237.11 263.305l32.162 28.08s27.104-20.911 30.524-35.861c3.42-14.934-7.595-27.484-7.595-27.484z"/></g><g><path fill="url(#6jq9F)" d="M411.064 255.95s-15.31 18.129-11.102 35.391c4.208 17.263 19.745 33.322 19.745 33.322l34.278-17.263z"/></g><g><g><path fill="url(#6jq9G)" d="M6.44 652.008l17.579 17.563 50.176-50.193 50.193 50.193 17.563-17.563-50.177-50.193 50.177-50.192-17.563-17.563-50.193 50.193L24.02 534.06 6.44 551.623l50.193 50.192z"/></g><g opacity=".2"><path fill="url(#6jq9H)" d="M475.25 119.131l17.74 17.741 50.68-50.695 50.695 50.695 17.741-17.741-50.68-50.695 50.68-50.695L594.365 0 543.67 50.695 492.99 0l-17.74 17.74 50.679 50.696z"/></g><g opacity=".2"/></g></g></g></g></svg>