<svg xmlns="http://www.w3.org/2000/svg" width="6" height="6" viewBox="0 0 6 6"><defs><linearGradient id="ddz5a" x1="3.32" x2="2.99" y1="-.45" y2="14.84" gradientUnits="userSpaceOnUse"><stop offset="0" stop-color="#2e2594"/><stop offset="1" stop-color="#f73b6c"/></linearGradient></defs><g><g><path fill="url(#ddz5a)" d="M2.007 1.922L2.827.3A.194.194 0 0 1 3 .19c.068 0 .137.036.174.11l.819 1.622 1.837.261a.201.201 0 0 1 .17.19.206.206 0 0 1-.064.166L4.615 3.798l.311 1.774c.03.166-.135.296-.28.222L3 4.948l-1.646.846a.195.195 0 0 1-.055.018c-.128.023-.25-.095-.225-.24l.311-1.774-1.32-1.259A.206.206 0 0 1 0 2.39c0-.04.011-.08.032-.114a.192.192 0 0 1 .139-.092l1.836-.26zM3 4.512c.03 0 .06.008.087.022l1.382.71-.26-1.484a.212.212 0 0 1 .06-.19l1.09-1.038-1.519-.216a.197.197 0 0 1-.147-.108L3 .836v.001z"/></g></g></svg>